# Blender v2.91.2 OBJ File: 'wind turbine.blend'
# www.blender.org
mtllib wind turbine.mtl
o Cylinder
v 0.000000 -0.090113 -0.585497
v 0.000000 0.090113 -0.585497
v 0.556840 -0.090113 -0.180928
v 0.556840 0.090113 -0.180928
v 0.344146 -0.090113 0.473677
v 0.344146 0.090113 0.473677
v -0.344146 -0.090113 0.473677
v -0.344146 0.090113 0.473677
v -0.556840 -0.090113 -0.180929
v -0.556840 0.090113 -0.180929
vt 1.000000 0.500000
vt 1.000000 1.000000
vt 0.800000 1.000000
vt 0.800000 0.500000
vt 0.600000 1.000000
vt 0.600000 0.500000
vt 0.400000 1.000000
vt 0.400000 0.500000
vt 0.478254 0.324164
vt 0.250000 0.490000
vt 0.021746 0.324164
vt 0.108932 0.055836
vt 0.391068 0.055836
vt 0.200000 1.000000
vt 0.200000 0.500000
vt 0.000000 1.000000
vt 0.000000 0.500000
vt 0.750000 0.490000
vt 0.978254 0.324164
vt 0.891068 0.055836
vt 0.608932 0.055836
vt 0.521746 0.324164
vn 0.5878 0.0000 -0.8090
vn 0.9511 0.0000 0.3090
vn -0.0000 0.0000 1.0000
vn 0.0000 1.0000 -0.0000
vn -0.9511 0.0000 0.3090
vn -0.5878 0.0000 -0.8090
vn 0.0000 -1.0000 -0.0000
usemtl Material.005
s off
f 1/1/1 2/2/1 4/3/1 3/4/1
f 3/4/2 4/3/2 6/5/2 5/6/2
f 5/6/3 6/5/3 8/7/3 7/8/3
f 4/9/4 2/10/4 10/11/4 8/12/4 6/13/4
f 7/8/5 8/7/5 10/14/5 9/15/5
f 9/15/6 10/14/6 2/16/6 1/17/6
f 1/18/7 3/19/7 5/20/7 7/21/7 9/22/7
o Cylinder.001
v 0.000000 9.627054 -0.330090
v 0.000000 9.627054 0.162677
v 0.144821 9.579999 -0.330090
v 0.144821 9.579999 0.162677
v 0.234325 9.456807 -0.330090
v 0.234325 9.456807 0.162677
v 0.234325 9.304534 -0.330090
v 0.234325 9.304534 0.162677
v 0.144821 9.181343 -0.330090
v 0.144821 9.181343 0.162677
v 0.000000 9.134287 -0.330090
v 0.000000 9.134287 0.162677
v -0.144821 9.181343 -0.330090
v -0.144821 9.181343 0.162677
v -0.234325 9.304534 -0.330090
v -0.234325 9.304534 0.162677
v -0.234325 9.456807 -0.330090
v -0.234325 9.456807 0.162677
v -0.144821 9.579999 -0.330090
v -0.144821 9.579999 0.162677
v 0.000000 9.511250 -0.591537
v 0.076753 9.486313 -0.591537
v 0.124189 9.421022 -0.591537
v 0.124189 9.340321 -0.591537
v 0.076753 9.275030 -0.591537
v 0.000000 9.250092 -0.591537
v -0.076753 9.275030 -0.591537
v -0.124189 9.340321 -0.591537
v -0.124189 9.421022 -0.591537
v -0.076753 9.486313 -0.591537
v 0.110963 9.533399 0.313663
v 0.000000 9.569452 0.313663
v 0.179542 9.439008 0.313663
v 0.179542 9.322334 0.313663
v 0.110963 9.227943 0.313663
v 0.000000 9.191889 0.313663
v -0.110963 9.227943 0.313663
v -0.179542 9.322334 0.313663
v -0.179542 9.439008 0.313663
v -0.110963 9.533399 0.313663
vt 1.000000 0.500000
vt 1.000000 1.000000
vt 0.900000 1.000000
vt 0.900000 0.500000
vt 0.800000 1.000000
vt 0.800000 0.500000
vt 0.700000 1.000000
vt 0.700000 0.500000
vt 0.600000 1.000000
vt 0.600000 0.500000
vt 0.500000 1.000000
vt 0.500000 0.500000
vt 0.400000 1.000000
vt 0.400000 0.500000
vt 0.300000 1.000000
vt 0.300000 0.500000
vt 0.200000 1.000000
vt 0.200000 0.500000
vt 1.000000 1.000000
vt 0.900000 1.000000
vt 0.100000 1.000000
vt 0.100000 0.500000
vt -0.000000 1.000000
vt -0.000000 0.500000
vt 0.100000 0.500000
vt 0.200000 0.500000
vt 0.750000 0.490000
vt 0.891068 0.444164
vt 0.978254 0.324164
vt 0.978254 0.175836
vt 0.891068 0.055836
vt 0.750000 0.010000
vt 0.608932 0.055836
vt 0.521746 0.175836
vt 0.521746 0.324164
vt 0.608932 0.444164
vt 0.300000 0.500000
vt 0.400000 0.500000
vt 0.500000 0.500000
vt 0.600000 0.500000
vt 0.700000 0.500000
vt 0.900000 0.500000
vt 1.000000 0.500000
vt 0.800000 0.500000
vt -0.000000 0.500000
vt 0.391068 0.444164
vt 0.250000 0.490000
vt 0.108932 0.444164
vt 0.021746 0.324164
vt 0.021746 0.175836
vt 0.108932 0.055836
vt 0.250000 0.010000
vt 0.391068 0.055836
vt 0.478254 0.175836
vt 0.478254 0.324164
vt 0.800000 1.000000
vt 0.700000 1.000000
vt 0.100000 1.000000
vt -0.000000 1.000000
vt 0.200000 1.000000
vt 0.300000 1.000000
vt 0.400000 1.000000
vt 0.500000 1.000000
vt 0.600000 1.000000
vn 0.3090 0.9511 0.0000
vn 0.8090 0.5878 0.0000
vn 1.0000 0.0000 0.0000
vn 0.8090 -0.5878 0.0000
vn 0.3090 -0.9511 0.0000
vn -0.3090 -0.9511 0.0000
vn -0.8090 -0.5878 0.0000
vn -1.0000 0.0000 0.0000
vn 0.2905 0.8940 0.3411
vn -0.8090 0.5878 0.0000
vn -0.3090 0.9511 0.0000
vn -0.7456 0.5417 -0.3882
vn -0.0000 0.0000 -1.0000
vn -0.9216 0.0000 -0.3882
vn -0.7456 -0.5417 -0.3882
vn -0.2848 -0.8765 -0.3882
vn 0.2848 -0.8765 -0.3882
vn 0.7456 -0.5417 -0.3882
vn 0.2848 0.8765 -0.3882
vn 0.9216 0.0000 -0.3882
vn 0.7456 0.5417 -0.3882
vn -0.2848 0.8765 -0.3882
vn 0.0000 -0.0000 1.0000
vn 0.9400 0.0000 0.3411
vn 0.7605 0.5525 0.3411
vn -0.2905 0.8940 0.3411
vn -0.7605 0.5525 0.3411
vn -0.9400 0.0000 0.3411
vn -0.7605 -0.5525 0.3411
vn -0.2905 -0.8940 0.3411
vn 0.2905 -0.8940 0.3411
vn 0.7605 -0.5525 0.3411
usemtl Material.002
s off
f 11/23/8 12/24/8 14/25/8 13/26/8
f 13/26/9 14/25/9 16/27/9 15/28/9
f 15/28/10 16/27/10 18/29/10 17/30/10
f 17/30/11 18/29/11 20/31/11 19/32/11
f 19/32/12 20/31/12 22/33/12 21/34/12
f 21/34/13 22/33/13 24/35/13 23/36/13
f 23/36/14 24/35/14 26/37/14 25/38/14
f 25/38/15 26/37/15 28/39/15 27/40/15
f 14/25/16 12/24/16 42/41/16 41/42/16
f 27/40/17 28/39/17 30/43/17 29/44/17
f 29/44/18 30/43/18 12/45/18 11/46/18
f 27/40/19 29/44/19 40/47/19 39/48/19
f 31/49/20 32/50/20 33/51/20 34/52/20 35/53/20 36/54/20 37/55/20 38/56/20 39/57/20 40/58/20
f 25/38/21 27/40/21 39/48/21 38/59/21
f 23/36/22 25/38/22 38/59/22 37/60/22
f 21/34/23 23/36/23 37/60/23 36/61/23
f 19/32/24 21/34/24 36/61/24 35/62/24
f 17/30/25 19/32/25 35/62/25 34/63/25
f 11/23/26 13/26/26 32/64/26 31/65/26
f 15/28/27 17/30/27 34/63/27 33/66/27
f 13/26/28 15/28/28 33/66/28 32/64/28
f 29/44/29 11/46/29 31/67/29 40/47/29
f 41/68/30 42/69/30 50/70/30 49/71/30 48/72/30 47/73/30 46/74/30 45/75/30 44/76/30 43/77/30
f 18/29/31 16/27/31 43/78/31 44/79/31
f 16/27/32 14/25/32 41/42/32 43/78/32
f 12/45/33 30/43/33 50/80/33 42/81/33
f 30/43/34 28/39/34 49/82/34 50/80/34
f 28/39/35 26/37/35 48/83/35 49/82/35
f 26/37/36 24/35/36 47/84/36 48/83/36
f 24/35/37 22/33/37 46/85/37 47/84/37
f 22/33/38 20/31/38 45/86/38 46/85/38
f 20/31/39 18/29/39 44/79/39 45/86/39
o Cylinder.002
v 0.000000 -0.038919 -0.356089
v -0.000000 9.252437 -0.124578
v 0.308382 -0.038919 -0.178044
v 0.107888 9.252437 -0.062289
v 0.308382 -0.038919 0.178044
v 0.107888 9.252437 0.062289
v -0.000000 -0.038919 0.356089
v -0.000000 9.252437 0.124578
v -0.308382 -0.038919 0.178044
v -0.107888 9.252437 0.062289
v -0.308382 -0.038919 -0.178044
v -0.107888 9.252437 -0.062289
vt 1.000000 0.500000
vt 1.000000 1.000000
vt 0.833333 1.000000
vt 0.833333 0.500000
vt 0.666667 1.000000
vt 0.666667 0.500000
vt 0.500000 1.000000
vt 0.500000 0.500000
vt 0.333333 1.000000
vt 0.333333 0.500000
vt 0.457846 0.370000
vt 0.250000 0.490000
vt 0.042154 0.370000
vt 0.042154 0.130000
vt 0.250000 0.010000
vt 0.457846 0.130000
vt 0.166667 1.000000
vt 0.166667 0.500000
vt -0.000000 1.000000
vt -0.000000 0.500000
vt 0.750000 0.490000
vt 0.957846 0.370000
vt 0.957846 0.130000
vt 0.750000 0.010000
vt 0.542154 0.130000
vt 0.542154 0.370000
vn 0.4999 0.0216 -0.8658
vn 0.9998 0.0216 0.0000
vn 0.4999 0.0216 0.8658
vn -0.4999 0.0216 0.8658
vn 0.0000 1.0000 0.0000
vn -0.9998 0.0216 0.0000
vn -0.4999 0.0216 -0.8658
vn 0.0000 -1.0000 -0.0000
usemtl None
s off
f 51/87/40 52/88/40 54/89/40 53/90/40
f 53/90/41 54/89/41 56/91/41 55/92/41
f 55/92/42 56/91/42 58/93/42 57/94/42
f 57/94/43 58/93/43 60/95/43 59/96/43
f 54/97/44 52/98/44 62/99/44 60/100/44 58/101/44 56/102/44
f 59/96/45 60/95/45 62/103/45 61/104/45
f 61/104/46 62/103/46 52/105/46 51/106/46
f 51/107/47 53/108/47 55/109/47 57/110/47 59/111/47 61/112/47
o Cylinder.003
v 0.000000 9.596171 0.312487
v 0.000000 9.518339 0.418697
v 0.182879 9.490585 0.312487
v 0.115475 9.451670 0.418697
v 0.182879 9.279415 0.312487
v 0.115475 9.318331 0.418697
v -0.000000 9.173829 0.312487
v -0.000000 9.251661 0.418697
v -0.182879 9.279415 0.312487
v -0.115475 9.318331 0.418697
v -0.182879 9.490585 0.312487
v -0.115475 9.451670 0.418697
v 0.028406 9.401401 0.480796
v 0.000000 9.417801 0.480796
v 0.028406 9.368600 0.480796
v -0.000000 9.352200 0.480796
v -0.028406 9.368600 0.480796
v -0.028406 9.401401 0.480796
vt 1.000000 0.500000
vt 1.000000 1.000000
vt 0.833333 1.000000
vt 0.833333 0.500000
vt 0.666667 1.000000
vt 0.666667 0.500000
vt 0.500000 1.000000
vt 0.500000 0.500000
vt 0.333333 1.000000
vt 0.333333 0.500000
vt 0.166667 1.000000
vt 0.333333 1.000000
vt 0.166667 1.000000
vt 0.166667 0.500000
vt -0.000000 1.000000
vt -0.000000 0.500000
vt 0.750000 0.490000
vt 0.957846 0.370000
vt 0.957846 0.130000
vt 0.750000 0.010000
vt 0.542154 0.130000
vt 0.542154 0.370000
vt 0.457846 0.370000
vt 0.250000 0.490000
vt 0.042154 0.370000
vt 0.042154 0.130000
vt 0.250000 0.010000
vt 0.457846 0.130000
vt 1.000000 1.000000
vt 0.833333 1.000000
vt 0.666667 1.000000
vt 0.500000 1.000000
vt -0.000000 1.000000
vn 0.4222 0.7312 0.5358
vn 0.8443 -0.0000 0.5358
vn 0.4222 -0.7312 0.5358
vn -0.4222 -0.7312 0.5358
vn -0.5807 0.0000 0.8141
vn -0.8443 0.0000 0.5358
vn -0.4222 0.7312 0.5358
vn 0.0000 0.0000 -1.0000
vn -0.0000 0.0000 1.0000
vn 0.2903 0.5029 0.8141
vn 0.2903 -0.5029 0.8141
vn -0.2903 0.5029 0.8142
vn -0.2903 -0.5029 0.8141
vn 0.5807 0.0000 0.8141
usemtl Material.006
s off
f 63/113/48 64/114/48 66/115/48 65/116/48
f 65/116/49 66/115/49 68/117/49 67/118/49
f 67/118/50 68/117/50 70/119/50 69/120/50
f 69/120/51 70/119/51 72/121/51 71/122/51
f 74/123/52 72/121/52 79/124/52 80/125/52
f 71/122/53 72/121/53 74/123/53 73/126/53
f 73/126/54 74/123/54 64/127/54 63/128/54
f 63/129/55 65/130/55 67/131/55 69/132/55 71/133/55 73/134/55
f 75/135/56 76/136/56 80/137/56 79/138/56 78/139/56 77/140/56
f 66/115/57 64/114/57 76/141/57 75/142/57
f 70/119/58 68/117/58 77/143/58 78/144/58
f 64/127/59 74/123/59 80/125/59 76/145/59
f 72/121/60 70/119/60 78/144/60 79/124/60
f 68/117/61 66/115/61 75/142/61 77/143/61
o Cube_Cube.001
v 0.000000 9.279415 0.320630
v 0.000000 9.490585 0.431045
v 1.055854 9.173829 0.320630
v 0.000000 9.279415 0.386709
v 0.000000 9.449848 0.431045
v 1.050254 9.344823 0.431045
v 1.055854 9.173829 0.386709
v 2.337294 9.559330 0.431045
v 3.589904 9.596171 0.386709
v 0.000000 9.490585 0.391472
v 0.000000 9.279415 0.320630
v 1.614824 9.266991 0.320630
v 3.589904 9.596171 0.386709
vt 0.712231 0.500000
vt 0.875000 0.500000
vt 0.875000 0.548228
vt 0.716651 0.631026
vt 0.375000 0.694854
vt 0.524615 0.500000
vt 0.524615 0.500000
vt 0.524615 0.750000
vt 0.375000 0.750000
vt 0.535399 0.250000
vt 0.625000 0.250000
vt 0.625000 0.412768
vt 0.375000 0.000000
vt 0.524615 0.000000
vt 0.625000 0.201772
vt 0.375000 0.000000
vt 0.625000 0.755322
vt 0.625000 1.000000
vt 0.524615 1.000000
vt 0.375000 1.000000
vt 0.125000 0.750000
vt 0.125000 0.500000
vt 0.375000 0.500000
vt 0.125000 0.750000
vn 0.0000 0.0000 1.0000
vn 0.1644 -0.9864 0.0000
vn -0.0294 0.9996 -0.0000
vn -1.0000 0.0000 0.0000
vn 0.0416 -0.2495 0.9675
vn -0.0252 -0.2517 0.9675
vn -0.0995 -0.9950 0.0000
vn -0.0056 0.2649 -0.9643
vn 0.0000 0.0000 -1.0000
usemtl Material.001
s off
f 88/146/62 82/147/62 85/148/62 86/149/62
f 92/150/63 93/151/63 89/152/63 87/153/63 83/154/63
f 90/155/64 82/156/64 88/157/64 89/152/64 93/151/64
f 81/158/65 84/159/65 85/160/65 82/156/65 90/155/65 91/161/65
f 88/146/66 86/149/66 87/153/66 89/152/66
f 86/162/67 85/163/67 84/164/67 87/153/67
f 83/154/68 87/153/68 84/164/68 81/165/68
f 92/150/69 91/166/69 90/167/69 93/168/69
f 91/166/70 92/150/70 83/154/70 81/169/70
o Cube.001_Cube.003
v 0.086490 9.445561 0.320630
v -0.086490 9.324439 0.431046
v -0.432632 10.371028 0.320630
v 0.086491 9.445561 0.386709
v -0.053120 9.347805 0.431046
v -0.569490 10.268363 0.431046
v -0.432632 10.371028 0.386709
v -1.483419 11.199608 0.431046
v -2.232065 12.204556 0.386710
v -0.086491 9.324439 0.391472
v 0.086490 9.445561 0.320630
v -0.829558 10.775475 0.320630
v -2.232065 12.204556 0.386710
vt 0.712231 0.500000
vt 0.875000 0.500000
vt 0.875000 0.548228
vt 0.716651 0.631026
vt 0.375000 0.694854
vt 0.524615 0.500000
vt 0.524615 0.500000
vt 0.524615 0.750000
vt 0.375000 0.750000
vt 0.535399 0.250000
vt 0.625000 0.250000
vt 0.625000 0.412768
vt 0.375000 0.000000
vt 0.524615 0.000000
vt 0.625000 0.201772
vt 0.375000 0.000000
vt 0.625000 0.755322
vt 0.625000 1.000000
vt 0.524615 1.000000
vt 0.375000 1.000000
vt 0.125000 0.750000
vt 0.125000 0.500000
vt 0.375000 0.500000
vt 0.125000 0.750000
vn 0.0000 0.0000 1.0000
vn 0.7137 0.7004 0.0000
vn -0.8019 -0.5974 -0.0000
vn 0.5736 -0.8192 0.0000
vn 0.1805 0.1772 0.9675
vn 0.2206 0.1237 0.9675
vn 0.8722 0.4892 -0.0000
vn -0.2138 -0.1565 -0.9643
vn -0.0000 0.0000 -1.0000
usemtl Material.003
s off
f 101/170/71 95/171/71 98/172/71 99/173/71
f 105/174/72 106/175/72 102/176/72 100/177/72 96/178/72
f 103/179/73 95/180/73 101/181/73 102/176/73 106/175/73
f 94/182/74 97/183/74 98/184/74 95/180/74 103/179/74 104/185/74
f 101/170/75 99/173/75 100/177/75 102/176/75
f 99/186/76 98/187/76 97/188/76 100/177/76
f 96/178/77 100/177/77 97/188/77 94/189/77
f 105/174/78 104/190/78 103/191/78 106/192/78
f 104/190/79 105/174/79 96/178/79 94/193/79
o Cube.002_Cube.005
v -0.086490 9.445561 0.320630
v 0.086490 9.324439 0.431046
v -0.778594 8.641218 0.320630
v -0.086491 9.445561 0.386709
v 0.053120 9.347805 0.431046
v -0.635312 8.547728 0.431045
v -0.778594 8.641218 0.386709
v -1.197814 7.370410 0.431045
v -1.886103 6.323200 0.386709
v 0.086491 9.324439 0.391472
v -0.086490 9.445561 0.320630
v -1.022893 8.129901 0.320630
v -1.886103 6.323200 0.386709
vt 0.712231 0.500000
vt 0.875000 0.500000
vt 0.875000 0.548228
vt 0.716651 0.631026
vt 0.375000 0.694854
vt 0.524615 0.500000
vt 0.524615 0.500000
vt 0.524615 0.750000
vt 0.375000 0.750000
vt 0.535399 0.250000
vt 0.625000 0.250000
vt 0.625000 0.412768
vt 0.375000 0.000000
vt 0.524615 0.000000
vt 0.625000 0.201772
vt 0.375000 0.000000
vt 0.625000 0.755322
vt 0.625000 1.000000
vt 0.524615 1.000000
vt 0.375000 1.000000
vt 0.125000 0.750000
vt 0.125000 0.500000
vt 0.375000 0.500000
vt 0.125000 0.750000
vn -0.0000 -0.0000 1.0000
vn -0.9023 0.4311 -0.0000
vn 0.8357 -0.5492 -0.0000
vn 0.5736 0.8192 -0.0000
vn -0.2282 0.1090 0.9675
vn -0.1917 0.1650 0.9675
vn -0.7580 0.6522 -0.0000
vn 0.2202 -0.1473 -0.9643
vn 0.0000 0.0000 -1.0000
usemtl Material.004
s off
f 114/194/80 108/195/80 111/196/80 112/197/80
f 118/198/81 119/199/81 115/200/81 113/201/81 109/202/81
f 116/203/82 108/204/82 114/205/82 115/200/82 119/199/82
f 107/206/83 110/207/83 111/208/83 108/204/83 116/203/83 117/209/83
f 114/194/84 112/197/84 113/201/84 115/200/84
f 112/210/85 111/211/85 110/212/85 113/201/85
f 109/202/86 113/201/86 110/212/86 107/213/86
f 118/198/87 117/214/87 116/215/87 119/216/87
f 117/214/88 118/198/88 109/202/88 107/217/88
